<svg id="Layer_1" data-name="Layer 1" xmlns="http://www.w3.org/2000/svg" viewBox="0 0 850.39 850.39"><defs><style>.cls-1{fill:#28b998;stroke-width:18px;}.cls-1,.cls-7{stroke:#1b2f5a;}.cls-1,.cls-2,.cls-3,.cls-5,.cls-6,.cls-7{stroke-miterlimit:10;}.cls-2,.cls-3,.cls-6,.cls-7{fill:none;}.cls-2{stroke:#2e3192;}.cls-2,.cls-3{stroke-width:14px;}.cls-3{stroke:#ed1c24;}.cls-4{font-size:59.03px;font-family:Didot-Bold, Didot;font-weight:700;}.cls-4,.cls-8{fill:#1a2f5a;}.cls-5{fill:#f29c1f;opacity:0.91;}.cls-5,.cls-6{stroke:#231f20;stroke-width:7px;}.cls-8{font-size:17.67px;font-family:Didot;}.cls-9{letter-spacing:-0.01em;}.cls-10{letter-spacing:-0.03em;}</style></defs><title>hex_sticker_2Artboard 1</title><polygon class="cls-1" points="778.96 633.11 423.9 838.13 70.21 630.73 71.59 218.3 426.65 13.27 780.34 220.67 778.96 633.11"/><path class="cls-2" d="M485,305.6a159.47,159.47,0,0,1-31.61,81.66,178.15,178.15,0,0,1-12.25,15.15,180,180,0,0,1-18.94,17.86c-9.34,7.68-10.44,7.16-17.19,12.83a108.7,108.7,0,0,0-19.9,21.76c-5.8,8.47-14.66,21.42-16.79,41.09a79.89,79.89,0,0,0,4.34,36.13c3,8,6.75,13.31,11.24,19.72,2.55,3.64,5,6.66,19,21.46,8.82,9.33,11.13,11.58,20.21,21.16,8.74,9.21,13.19,13.92,17.33,18.73a213.7,213.7,0,0,1,16.24,20.56,180.78,180.78,0,0,1,15.14,27.07h0c9.23,23.18,11.41,35,11.41,35,1,5.53,2.32,13.26,3.51,22.65"/><path class="cls-3" d="M369.56,305.6A163.79,163.79,0,0,0,374,330.67a171.17,171.17,0,0,0,17.36,41.74A175.27,175.27,0,0,0,425,413.87c3.27,3,3.26,2.74,18.32,14.92,15.47,12.51,16.81,13.84,18.37,15.55a89.24,89.24,0,0,1,15,22.83A80.54,80.54,0,0,1,484.35,494c.45,4.46,1.35,19.94-4.52,35.08-3.17,8.19-7.09,13.74-11.21,19.53-3.24,4.55-4.86,6.15-13.26,15.54-14.41,16.13-14.29,16.63-27.77,31.52-3.88,4.28-5.7,6.24-10.53,11.63-7.81,8.7-11.73,13-13.71,15.48a164,164,0,0,0-20.49,32.17,167.36,167.36,0,0,0-8.06,20.67c-4,12.09-6.48,19.83-6,30a55.51,55.51,0,0,0,2.31,13.54"/><line class="cls-3" x1="470.76" y1="314.34" x2="380.13" y2="314.34"/><line class="cls-2" x1="454.02" y1="338.59" x2="396.87" y2="338.59"/><line class="cls-3" x1="447.82" y1="365.46" x2="403.06" y2="365.46"/><line class="cls-3" x1="472.51" y1="706.01" x2="381.87" y2="706.01"/><line class="cls-2" x1="454.02" y1="679.69" x2="396.87" y2="679.69"/><line class="cls-3" x1="447.82" y1="652.83" x2="403.06" y2="652.83"/><line class="cls-2" x1="470.83" y1="503.21" x2="380.2" y2="503.21"/><line class="cls-3" x1="454.02" y1="527.15" x2="396.87" y2="527.15"/><line class="cls-2" x1="446.2" y1="553.98" x2="401.44" y2="553.98"/><line class="cls-3" x1="454.02" y1="476.21" x2="396.87" y2="476.21"/><line class="cls-2" x1="449.64" y1="450.53" x2="404.88" y2="450.53"/><text class="cls-4" transform="matrix(0.87, 0.5, -0.5, 0.87, 93.37, 610.09)">FungiExpresZ</text><path class="cls-5" d="M259.85,269.18c-53.74,27.46-64.26,23.26-67,19.79-6.32-8,13.59-34.27,40.68-69.9,20.23-26.63,33.71-44.24,57.1-64.58,21.83-19,39.92-34.74,69.21-45.34,8-2.91,47.4-16.48,97-6.28,27.77,5.71,46.43,16.34,65.34,27.11a298.06,298.06,0,0,1,82.08,68.69c31.3,38,41.73,70.55,44.86,81.41,4.28,14.81,9.52,39.42,3.81,41.94-5.14,2.27-13.54-15.66-33.18-33.19-22-19.62-44.6-26.7-72.73-35.52-32-10-57.08-12.09-81.44-14.09-47.83-3.93-84.2.11-91.89,1A441.2,441.2,0,0,0,259.85,269.18Z"/><path class="cls-6" d="M192.85,289a238.18,238.18,0,0,0,51,26.15C268.7,324.25,291.15,327,335.05,332c23,2.65,43.77,5,72.73,6.27,20.18.87,48,.11,102.67-1.44,54.47-1.54,68.1-2.47,85-4.59A564.71,564.71,0,0,0,652.94,322"/><line class="cls-7" x1="423.8" y1="297.96" x2="207.8" y2="291.62"/><line class="cls-7" x1="423.8" y1="297.96" x2="209.44" y2="299.22"/><line class="cls-7" x1="423.8" y1="297.96" x2="222.41" y2="306"/><line class="cls-7" x1="423.8" y1="297.96" x2="239.53" y2="313.47"/><line class="cls-7" x1="423.8" y1="297.96" x2="261.42" y2="319.52"/><line class="cls-7" x1="422.9" y1="297.94" x2="286.35" y2="325.76"/><line class="cls-7" x1="423.8" y1="297.96" x2="308.64" y2="328.88"/><line class="cls-7" x1="422.9" y1="297.94" x2="335.05" y2="332"/><line class="cls-7" x1="422.9" y1="297.94" x2="363.75" y2="335.14"/><line class="cls-7" x1="422.9" y1="297.94" x2="383.43" y2="337.76"/><line class="cls-7" x1="422.9" y1="298.59" x2="399.56" y2="337.88"/><line class="cls-7" x1="422.9" y1="298.59" x2="411.51" y2="338.64"/><line class="cls-7" x1="422.9" y1="297.94" x2="424.99" y2="338.26"/><line class="cls-7" x1="436.61" y1="338.59" x2="423.32" y2="298.09"/><line class="cls-7" x1="449.32" y1="338.4" x2="423.8" y2="297.96"/><line class="cls-7" x1="462.11" y1="338.64" x2="423.8" y2="297.96"/><line class="cls-7" x1="476.4" y1="337.77" x2="423.8" y2="297.96"/><line class="cls-7" x1="490.25" y1="337.4" x2="423.8" y2="297.96"/><line class="cls-7" x1="508.19" y1="336.9" x2="424.86" y2="298.59"/><line class="cls-7" x1="424.86" y1="298.59" x2="521.22" y2="334.47"/><line class="cls-7" x1="423.8" y1="297.96" x2="223.39" y2="285.78"/><line class="cls-7" x1="422.9" y1="297.94" x2="243.27" y2="277.31"/><line class="cls-7" x1="422.9" y1="297.94" x2="258.53" y2="269.85"/><line class="cls-7" x1="422.9" y1="297.94" x2="276.28" y2="263.95"/><line class="cls-7" x1="422.9" y1="297.94" x2="288.55" y2="257.88"/><line class="cls-7" x1="302.29" y1="254.57" x2="422.9" y2="297.94"/><line class="cls-7" x1="315.58" y1="250.95" x2="420.86" y2="297.05"/><line class="cls-7" x1="331.15" y1="247.26" x2="422.9" y2="297.94"/><line class="cls-7" x1="347.03" y1="243.48" x2="422.9" y2="297.94"/><line class="cls-7" x1="368.22" y1="241.12" x2="422.9" y2="297.94"/><line class="cls-7" x1="384.96" y1="239.1" x2="422.9" y2="297.94"/><line class="cls-7" x1="399.41" y1="236.74" x2="422.9" y2="297.94"/><line class="cls-7" x1="414.34" y1="236.74" x2="422.9" y2="297.94"/><line class="cls-7" x1="428.2" y1="236.74" x2="423.91" y2="296.49"/><line class="cls-7" x1="439.37" y1="237.76" x2="422.9" y2="297.94"/><line class="cls-7" x1="450.33" y1="239.11" x2="422.9" y2="297.94"/><line class="cls-7" x1="463.89" y1="239.08" x2="422.9" y2="297.94"/><line class="cls-7" x1="474.83" y1="239.99" x2="423.8" y2="297.96"/><line class="cls-7" x1="484.92" y1="240.94" x2="423.8" y2="297.96"/><line class="cls-7" x1="499.5" y1="242.68" x2="423.95" y2="297.17"/><line class="cls-7" x1="513.81" y1="245.01" x2="423.95" y2="297.17"/><line class="cls-7" x1="528.05" y1="248.06" x2="426.05" y2="296.57"/><line class="cls-7" x1="541.44" y1="251.62" x2="423.8" y2="297.96"/><line class="cls-7" x1="556.69" y1="256.36" x2="423.8" y2="297.96"/><line class="cls-7" x1="570.07" y1="260.84" x2="424.92" y2="297.61"/><line class="cls-7" x1="584.79" y1="266.62" x2="423.8" y2="297.96"/><line class="cls-7" x1="596.91" y1="272.6" x2="423.8" y2="297.96"/><line class="cls-7" x1="606.2" y1="278.29" x2="423.8" y2="297.96"/><line class="cls-7" x1="615.61" y1="285.28" x2="423.8" y2="297.96"/><line class="cls-7" x1="623.05" y1="291.87" x2="426.05" y2="297.81"/><line class="cls-7" x1="630.45" y1="299.44" x2="426.05" y2="297.81"/><line class="cls-7" x1="637.28" y1="307.33" x2="423.8" y2="297.96"/><line class="cls-7" x1="645.84" y1="317.68" x2="426.05" y2="297.81"/><line class="cls-7" x1="639.19" y1="325.02" x2="426.05" y2="298.59"/><line class="cls-7" x1="614.37" y1="329.55" x2="429.97" y2="299.07"/><line class="cls-7" x1="593.55" y1="332.48" x2="427.86" y2="298.59"/><line class="cls-7" x1="570.96" y1="334.52" x2="430.65" y2="299.16"/><line class="cls-7" x1="541.45" y1="335.87" x2="425.41" y2="297.85"/><text class="cls-8" transform="translate(517.9 761.72) rotate(-30)">cparsania.shi<tspan class="cls-9" x="103.66" y="0">ny</tspan><tspan x="122.6" y="0">app</tspan><tspan class="cls-10" x="152.05" y="0">s</tspan><tspan x="158.96" y="0">.io/fungi</tspan><tspan class="cls-9" x="225.7" y="0">e</tspan><tspan x="234.36" y="0">xpresz</tspan></text></svg>